<?xml version="1.0" encoding="utf-8"?>
<!-- Generator: Adobe Illustrator 16.0.0, SVG Export Plug-In . SVG Version: 6.00 Build 0)  -->
<!DOCTYPE svg PUBLIC "-//W3C//DTD SVG 1.1//EN" "http://www.w3.org/Graphics/SVG/1.1/DTD/svg11.dtd">
<svg version="1.1" id="Layer_1" xmlns="http://www.w3.org/2000/svg" xmlns:xlink="http://www.w3.org/1999/xlink" x="0px" y="0px"
	 width="1924px" height="220.584px" viewBox="0 0 1924 220.584" enable-background="new 0 0 1924 220.584" xml:space="preserve">
<circle fill="#F1F6FB" cx="74.466" cy="17.332" r="6"/>
<circle fill="#F1F6FB" cx="94.05" cy="17.332" r="6"/>
<circle fill="#F1F6FB" cx="113.634" cy="17.332" r="6"/>
<circle fill="#F1F6FB" cx="133.218" cy="17.332" r="6"/>
<circle fill="#F1F6FB" cx="152.802" cy="17.332" r="6"/>
<circle fill="#F1F6FB" cx="172.386" cy="17.332" r="6"/>
<circle fill="#F1F6FB" cx="191.97" cy="17.332" r="6"/>
<circle fill="#F1F6FB" cx="211.554" cy="17.332" r="6"/>
<circle fill="#F1F6FB" cx="231.138" cy="17.332" r="6"/>
<circle fill="#F1F6FB" cx="250.722" cy="17.332" r="6"/>
<circle fill="#F1F6FB" cx="271.736" cy="17.332" r="6"/>
<circle fill="#F1F6FB" cx="291.32" cy="17.332" r="6"/>
<circle fill="#F1F6FB" cx="74.466" cy="39.984" r="6"/>
<circle fill="#F1F6FB" cx="94.05" cy="39.984" r="6"/>
<circle fill="#F1F6FB" cx="113.634" cy="39.984" r="6"/>
<circle fill="#F1F6FB" cx="133.218" cy="39.984" r="6"/>
<circle fill="#F1F6FB" cx="152.802" cy="39.984" r="6"/>
<circle fill="#F1F6FB" cx="172.386" cy="39.984" r="6"/>
<circle fill="#F1F6FB" cx="191.97" cy="39.984" r="6"/>
<circle fill="#F1F6FB" cx="211.554" cy="39.984" r="6"/>
<circle fill="#F1F6FB" cx="231.138" cy="39.984" r="6"/>
<circle fill="#F1F6FB" cx="250.722" cy="39.984" r="6"/>
<circle fill="#F1F6FB" cx="271.736" cy="39.984" r="6"/>
<circle fill="#F1F6FB" cx="291.32" cy="39.984" r="6"/>
<circle fill="#F1F6FB" cx="74.466" cy="62.637" r="6"/>
<circle fill="#F1F6FB" cx="94.05" cy="62.637" r="6"/>
<circle fill="#F1F6FB" cx="113.634" cy="62.637" r="6"/>
<circle fill="#F1F6FB" cx="133.218" cy="62.637" r="6"/>
<circle fill="#F1F6FB" cx="152.802" cy="62.637" r="6"/>
<circle fill="#F1F6FB" cx="172.386" cy="62.637" r="6"/>
<circle fill="#F1F6FB" cx="191.97" cy="62.637" r="6"/>
<circle fill="#F1F6FB" cx="211.554" cy="62.637" r="6"/>
<circle fill="#F1F6FB" cx="231.138" cy="62.637" r="6"/>
<circle fill="#F1F6FB" cx="250.722" cy="62.637" r="6"/>
<circle fill="#F1F6FB" cx="271.736" cy="62.637" r="6"/>
<circle fill="#F1F6FB" cx="291.32" cy="62.637" r="6"/>
<circle fill="#F1F6FB" cx="74.466" cy="85.29" r="6"/>
<circle fill="#F1F6FB" cx="94.05" cy="85.29" r="6"/>
<circle fill="#F1F6FB" cx="113.634" cy="85.29" r="6"/>
<circle fill="#F1F6FB" cx="133.218" cy="85.29" r="6"/>
<circle fill="#F1F6FB" cx="152.802" cy="85.29" r="6"/>
<circle fill="#F1F6FB" cx="172.386" cy="85.29" r="6"/>
<circle fill="#F1F6FB" cx="191.97" cy="85.29" r="6"/>
<circle fill="#F1F6FB" cx="211.554" cy="85.29" r="6"/>
<circle fill="#F1F6FB" cx="231.138" cy="85.29" r="6"/>
<circle fill="#F1F6FB" cx="250.722" cy="85.29" r="6"/>
<circle fill="#F1F6FB" cx="271.736" cy="85.29" r="6"/>
<circle fill="#F1F6FB" cx="291.32" cy="85.29" r="6"/>
<circle fill="#F1F6FB" cx="74.466" cy="107.943" r="6"/>
<circle fill="#F1F6FB" cx="94.05" cy="107.943" r="6"/>
<circle fill="#F1F6FB" cx="113.634" cy="107.943" r="6"/>
<circle fill="#F1F6FB" cx="133.218" cy="107.943" r="6"/>
<circle fill="#F1F6FB" cx="152.802" cy="107.943" r="6"/>
<circle fill="#F1F6FB" cx="172.386" cy="107.943" r="6"/>
<circle fill="#F1F6FB" cx="191.97" cy="107.943" r="6"/>
<circle fill="#F1F6FB" cx="211.554" cy="107.943" r="6"/>
<circle fill="#F1F6FB" cx="231.138" cy="107.943" r="6"/>
<circle fill="#F1F6FB" cx="250.722" cy="107.943" r="6"/>
<circle fill="#F1F6FB" cx="271.736" cy="107.943" r="6"/>
<circle fill="#F1F6FB" cx="291.32" cy="107.943" r="6"/>
<circle fill="#F1F6FB" cx="74.466" cy="130.596" r="6"/>
<circle fill="#F1F6FB" cx="94.05" cy="130.596" r="6"/>
<circle fill="#F1F6FB" cx="113.634" cy="130.596" r="6"/>
<circle fill="#F1F6FB" cx="133.218" cy="130.596" r="6"/>
<circle fill="#F1F6FB" cx="152.802" cy="130.596" r="6"/>
<circle fill="#F1F6FB" cx="172.386" cy="130.596" r="6"/>
<circle fill="#F1F6FB" cx="191.97" cy="130.596" r="6"/>
<circle fill="#F1F6FB" cx="211.554" cy="130.596" r="6"/>
<circle fill="#F1F6FB" cx="231.138" cy="130.596" r="6"/>
<circle fill="#F1F6FB" cx="74.466" cy="153.248" r="6"/>
<circle fill="#F1F6FB" cx="94.05" cy="153.248" r="6"/>
<circle fill="#F1F6FB" cx="113.634" cy="153.248" r="6"/>
<circle fill="#F1F6FB" cx="133.218" cy="153.248" r="6"/>
<circle fill="#F1F6FB" cx="152.802" cy="153.248" r="6"/>
<circle fill="#F1F6FB" cx="172.386" cy="153.248" r="6"/>
<circle fill="#F1F6FB" cx="191.97" cy="153.248" r="6"/>
<circle fill="#F1F6FB" cx="211.554" cy="153.248" r="6"/>
<circle fill="#F1F6FB" cx="231.138" cy="153.248" r="6"/>
<circle fill="#F1F6FB" cx="74.466" cy="175.9" r="6"/>
<circle fill="#F1F6FB" cx="94.05" cy="175.9" r="6"/>
<circle fill="#F1F6FB" cx="113.634" cy="175.9" r="6"/>
<circle fill="#F1F6FB" cx="133.218" cy="175.9" r="6"/>
<circle fill="#F1F6FB" cx="152.802" cy="175.9" r="6"/>
<circle fill="#F1F6FB" cx="172.386" cy="175.9" r="6"/>
<circle fill="#F1F6FB" cx="191.97" cy="175.9" r="6"/>
<circle fill="#F1F6FB" cx="211.554" cy="175.9" r="6"/>
<circle fill="#F1F6FB" cx="231.138" cy="175.9" r="6"/>
<polygon fill="#03062F" points="12,0 1772.172,185.064 1924,92.532 1924,0 "/>
</svg>
