<?xml version="1.0" encoding="utf-8"?>
<!-- Generator: Adobe Illustrator 16.0.0, SVG Export Plug-In . SVG Version: 6.00 Build 0)  -->
<!DOCTYPE svg PUBLIC "-//W3C//DTD SVG 1.1//EN" "http://www.w3.org/Graphics/SVG/1.1/DTD/svg11.dtd">
<svg version="1.1" id="Layer_1" xmlns="http://www.w3.org/2000/svg" xmlns:xlink="http://www.w3.org/1999/xlink" x="0px" y="0px"
	 width="294.078px" height="84.439px" viewBox="0 0 294.078 84.439" enable-background="new 0 0 294.078 84.439"
	 xml:space="preserve">
<path fill-rule="evenodd" clip-rule="evenodd" fill="#FFFFFF" d="M26.215,43.124c1.244-3.754,2.635-7.071,3.418-10.527
	c0.969-4.271,3.432-6.915,7.064-9.229C46.951,16.842,56.974,9.951,67.088,3.207c0.438-0.291,0.891-0.557,1.611-1.004
	c-0.502,2.562-0.941,4.858-1.4,7.152c-4.127,20.631-8.258,41.262-12.386,61.893c-0.589,2.94-1.138,5.89-1.796,8.814
	c-0.089,0.397-0.701,0.963-1.076,0.967c-5.625,0.057-11.25,0.034-16.875,0.023c-0.138-0.001-0.274-0.076-0.581-0.167
	c3.476-16.234,6.952-32.466,10.507-49.063C38.734,35.629,32.645,39.273,26.215,43.124z"/>
<path fill-rule="evenodd" clip-rule="evenodd" fill="#6089C6" d="M1.902,80.794c0.471-2.651,0.91-5.165,1.363-7.676
	c0.834-4.61,1.645-9.226,2.551-13.821c0.131-0.663,0.599-1.487,1.156-1.805c10.389-5.911,20.813-11.758,31.232-17.615
	c0.246-0.139,0.518-0.234,1.016-0.457c-0.467,2.441-0.884,4.693-1.332,6.938c-2.203,11.028-4.418,22.054-6.619,33.081
	c-0.168,0.843-0.309,1.494-1.477,1.488c-8.92-0.047-17.84-0.025-26.76-0.03C2.749,80.896,2.464,80.847,1.902,80.794z"/>
<g>
	<path fill="#FFFFFF" d="M106.868,30.618H88.024l1.987-9.941h48.58l-1.988,9.941H117.76l-9.768,50.309H97.101L106.868,30.618z"/>
	<path fill="#FFFFFF" d="M165.129,40.04l-6.396,8.73c-1.297-0.951-2.853-1.21-4.668-1.21c-6.569,0-10.805,4.322-12.361,12.361
		l-4.063,21.005h-10.373l8.299-42.615h10.459l-1.383,6.742c2.766-5.1,7.952-7.607,12.447-7.607
		C160.202,37.447,162.622,38.312,165.129,40.04z"/>
	<path fill="#FFFFFF" d="M170.577,63.466c-0.086,0.519-0.086,1.037-0.086,1.556c0,4.668,2.68,7.348,8.558,7.348
		c4.063,0,7.866-1.556,11.41-4.927l6.224,6.915c-5.705,5.187-11.67,7.434-18.585,7.434c-12.534,0-17.548-7.693-17.548-17.115
		c0-14.781,10.027-27.229,24.463-27.229c11.237,0,16.338,7.088,16.338,16.51c0,2.939-0.778,7.175-1.47,9.509H170.577z
		 M172.133,55.945h19.19c0.433-1.124,0.605-2.247,0.605-3.198c0-3.89-2.853-6.656-7.693-6.656
		C177.233,46.091,173.517,51.45,172.133,55.945z"/>
	<path fill="#FFFFFF" d="M206.969,38.312h11.151l4.581,29.131l16.164-29.131h11.41l-25.673,42.615h-8.558L206.969,38.312z"/>
	<path fill="#FFFFFF" d="M292.027,38.312l-8.298,42.615h-10.373l0.95-4.927c-3.717,4.408-8.558,5.791-12.879,5.791
		c-9.769,0-14.695-6.656-14.695-16.337c0-14.263,8.558-28.007,22.302-28.007c5.1,0,9.509,2.334,11.583,5.532l0.951-4.667H292.027z
		 M278.975,55.254c0-4.927-2.42-8.385-8.212-8.385c-8.816,0-13.744,8.73-13.744,17.634c0,4.927,2.421,7.693,7.78,7.693
		C273.702,72.196,278.975,63.984,278.975,55.254z"/>
</g>
</svg>
